<svg id="visual" viewBox="0 0 1920 1080" width="1920" height="1080" xmlns="http://www.w3.org/2000/svg" xmlns:xlink="http://www.w3.org/1999/xlink" version="1.1"><rect x="0" y="0" width="1920" height="1080" fill="#221F3B"></rect><g transform="translate(898.5847107744712 625.9251152218748)"><path d="M188.9 -288.5C270.8 -241.3 381 -232.8 442.7 -178.5C504.3 -124.1 517.4 -23.9 484.8 56.1C452.2 136.2 373.8 196.1 299.4 230.9C224.9 265.7 154.3 275.3 92.4 275.8C30.4 276.3 -22.8 267.7 -92.8 268.8C-162.8 269.9 -249.6 280.6 -301.1 246.7C-352.6 212.7 -368.8 134 -375.8 56.7C-382.8 -20.7 -380.6 -96.8 -356.7 -168.7C-332.8 -240.6 -287.2 -308.3 -224.2 -364C-161.1 -419.7 -80.6 -463.3 -13.5 -442.3C53.5 -421.3 107 -335.6 188.9 -288.5" fill="#6F4A8E"></path></g></svg>